<svg height="512" viewBox="0 -51 512 512" width="512" xmlns="http://www.w3.org/2000/svg"><path d="m109.808594 185.78125c0-8.277344 6.722656-15 15-15h78.613281c-7.261719-49.410156-49.863281-87.449219-101.160156-87.449219-56.382813 0-102.261719 45.960938-102.261719 102.449219 0 56.5 45.878906 102.460938 102.261719 102.460938 51.308593 0 93.898437-38.050782 101.160156-87.460938h-78.613281c-8.277344 0-15-6.710938-15-15zm0 0"/><path d="m504.648438 169.363281-50.519532-45.109375c-6.179687-5.511718-15.660156-4.980468-21.179687 1.199219-5.507813 6.179687-4.980469 15.667969 1.199219 21.179687l27.050781 24.148438h-257.777344c.726563 4.890625 1.097656 9.902344 1.097656 15 0 5.089844-.371093 10.101562-1.097656 15h257.777344l-27.050781 24.152344c-6.179688 5.519531-6.707032 15-1.199219 21.179687 2.972656 3.320313 7.070312 5.007813 11.199219 5.007813 3.550781 0 7.121093-1.25 9.980468-3.808594l50.519532-45.101562c4.621093-4.128907 7.292968-10.027344 7.351562-16.230469v-.398438c-.058594-6.191406-2.730469-12.089843-7.351562-16.21875zm0 0"/><path d="m300.625 64.992188c0 8.285156 6.714844 15 15 15h163.5c8.28125 0 15-6.714844 15-15 0-8.285157-6.71875-15-15-15h-163.5c-8.285156 0-15 6.714843-15 15zm0 0"/><path d="m207.367188 30h126.511718c8.285156 0 15-6.714844 15-15s-6.714844-15-15-15h-126.511718c-8.285157 0-15 6.714844-15 15s6.714843 15 15 15zm0 0"/><path d="m383.605469 30h23.398437c8.28125 0 15-6.714844 15-15s-6.71875-15-15-15h-23.398437c-8.285157 0-15 6.714844-15 15s6.714843 15 15 15zm0 0"/><path d="m214.320312 78.984375c-8.285156 0-15 6.71875-15 15 0 8.285156 6.714844 15 15 15h23.398438c8.285156 0 15-6.714844 15-15 0-8.28125-6.714844-15-15-15zm0 0"/><path d="m257.753906 258.960938c8.28125 0 15-6.714844 15-15 0-8.285157-6.71875-15-15-15h-23.402344c-8.28125 0-15 6.714843-15 15 0 8.285156 6.71875 15 15 15zm0 0"/><path d="m178.394531 351.003906h-83.5c-8.285156 0-15 6.71875-15 15 0 8.285156 6.714844 15 15 15h83.5c8.285157 0 15-6.714844 15-15 0-8.28125-6.714843-15-15-15zm0 0"/><path d="m251.519531 351.003906h-23.402343c-8.28125 0-15 6.71875-15 15 0 8.285156 6.71875 15 15 15h23.402343c8.28125 0 15-6.714844 15-15 0-8.28125-6.714843-15-15-15zm0 0"/><path d="m366.652344 301.011719h-196.511719c-8.285156 0-15 6.71875-15 15 0 8.285156 6.714844 15 15 15h196.511719c8.285156 0 15-6.714844 15-15 0-8.28125-6.714844-15-15-15zm0 0"/><path d="m359.699219 380h-23.398438c-8.28125 0-15 6.714844-15 15s6.71875 15 15 15h23.398438c8.285156 0 15-6.714844 15-15s-6.714844-15-15-15zm0 0"/></svg>
